<mxfile host="Electron" modified="2024-05-07T19:19:51.130Z" agent="Mozilla/5.0 (Windows NT 10.0; Win64; x64) AppleWebKit/537.36 (KHTML, like Gecko) draw.io/24.0.4 Chrome/120.0.6099.109 Electron/28.1.0 Safari/537.36" etag="c4zjTpUvBoTN9dFk0wzw" version="24.0.4" type="device">
  <diagram name="Seite-1" id="8YABCWYjU56DUB7J7AaN">
    <mxGraphModel dx="989" dy="582" grid="1" gridSize="10" guides="1" tooltips="1" connect="1" arrows="1" fold="1" page="1" pageScale="1" pageWidth="827" pageHeight="1169" math="1" shadow="0">
      <root>
        <mxCell id="0" />
        <mxCell id="1" parent="0" />
        <mxCell id="p23xVv6Rp5-aRSuJVF9R-11" value="" style="shape=flexArrow;endArrow=classic;html=1;rounded=0;width=30;startWidth=30;endWidth=30;fillColor=#dae8fc;strokeColor=#6c8ebf;" edge="1" parent="1">
          <mxGeometry width="50" height="50" relative="1" as="geometry">
            <mxPoint x="530" y="440" as="sourcePoint" />
            <mxPoint x="160" y="440" as="targetPoint" />
          </mxGeometry>
        </mxCell>
        <mxCell id="p23xVv6Rp5-aRSuJVF9R-9" value="" style="shape=flexArrow;endArrow=classic;startArrow=classic;html=1;rounded=0;startWidth=30;endWidth=30;width=30;fillColor=#e1d5e7;strokeColor=#9673a6;" edge="1" parent="1">
          <mxGeometry width="100" height="100" relative="1" as="geometry">
            <mxPoint x="160" y="510" as="sourcePoint" />
            <mxPoint x="720" y="510" as="targetPoint" />
          </mxGeometry>
        </mxCell>
        <mxCell id="p23xVv6Rp5-aRSuJVF9R-4" value="SNR = 63dB(A)" style="text;html=1;align=center;verticalAlign=middle;whiteSpace=wrap;rounded=0;" vertex="1" parent="1">
          <mxGeometry x="180" y="420" width="333.33" height="40" as="geometry" />
        </mxCell>
        <mxCell id="p23xVv6Rp5-aRSuJVF9R-12" value="" style="shape=flexArrow;endArrow=classic;html=1;rounded=0;width=30;startWidth=30;endWidth=30;fillColor=#d5e8d4;strokeColor=#82b366;" edge="1" parent="1">
          <mxGeometry width="50" height="50" relative="1" as="geometry">
            <mxPoint x="520" y="440" as="sourcePoint" />
            <mxPoint x="720" y="440" as="targetPoint" />
          </mxGeometry>
        </mxCell>
        <mxCell id="p23xVv6Rp5-aRSuJVF9R-13" value="Dynamic Range = 98.5dB" style="text;html=1;align=center;verticalAlign=middle;whiteSpace=wrap;rounded=0;" vertex="1" parent="1">
          <mxGeometry x="180" y="490" width="520" height="40" as="geometry" />
        </mxCell>
        <mxCell id="p23xVv6Rp5-aRSuJVF9R-14" value="" style="endArrow=none;dashed=1;html=1;strokeWidth=2;rounded=0;exitX=0.654;exitY=1;exitDx=0;exitDy=0;exitPerimeter=0;strokeColor=#C7C7C7;" edge="1" parent="1">
          <mxGeometry width="50" height="50" relative="1" as="geometry">
            <mxPoint x="520.08" y="530" as="sourcePoint" />
            <mxPoint x="520" y="420" as="targetPoint" />
          </mxGeometry>
        </mxCell>
        <mxCell id="p23xVv6Rp5-aRSuJVF9R-15" value="" style="endArrow=none;dashed=1;html=1;strokeWidth=2;rounded=0;strokeColor=#C7C7C7;" edge="1" parent="1">
          <mxGeometry width="50" height="50" relative="1" as="geometry">
            <mxPoint x="160" y="560" as="sourcePoint" />
            <mxPoint x="160" y="400" as="targetPoint" />
          </mxGeometry>
        </mxCell>
        <mxCell id="p23xVv6Rp5-aRSuJVF9R-16" value="" style="endArrow=none;dashed=1;html=1;strokeWidth=2;rounded=0;strokeColor=#C7C7C7;" edge="1" parent="1">
          <mxGeometry width="50" height="50" relative="1" as="geometry">
            <mxPoint x="720" y="560" as="sourcePoint" />
            <mxPoint x="720" y="400" as="targetPoint" />
          </mxGeometry>
        </mxCell>
        <mxCell id="p23xVv6Rp5-aRSuJVF9R-17" value="Rauschboden (Noise Floor)" style="text;html=1;align=center;verticalAlign=middle;whiteSpace=wrap;rounded=0;fontStyle=1" vertex="1" parent="1">
          <mxGeometry x="120" y="370" width="80" height="30" as="geometry" />
        </mxCell>
        <mxCell id="p23xVv6Rp5-aRSuJVF9R-18" value="AOP" style="text;html=1;align=center;verticalAlign=middle;whiteSpace=wrap;rounded=0;fontStyle=1" vertex="1" parent="1">
          <mxGeometry x="680" y="370" width="80" height="30" as="geometry" />
        </mxCell>
        <mxCell id="p23xVv6Rp5-aRSuJVF9R-20" value="$$31 \space dBSPL$$" style="text;html=1;align=right;verticalAlign=middle;whiteSpace=wrap;rounded=0;" vertex="1" parent="1">
          <mxGeometry x="40" y="425" width="110" height="30" as="geometry" />
        </mxCell>
        <mxCell id="p23xVv6Rp5-aRSuJVF9R-21" value="$$98.5\space dBFS$$" style="text;html=1;align=right;verticalAlign=middle;whiteSpace=wrap;rounded=0;" vertex="1" parent="1">
          <mxGeometry x="40" y="495" width="110" height="30" as="geometry" />
        </mxCell>
        <mxCell id="p23xVv6Rp5-aRSuJVF9R-22" value="94 dBSPL @1kHz" style="text;html=1;align=center;verticalAlign=middle;whiteSpace=wrap;rounded=0;fontColor=#FF6666;" vertex="1" parent="1">
          <mxGeometry x="480" y="390" width="80" height="30" as="geometry" />
        </mxCell>
        <mxCell id="p23xVv6Rp5-aRSuJVF9R-23" value="35.5 dBFS" style="text;html=1;align=center;verticalAlign=middle;whiteSpace=wrap;rounded=0;fontColor=#FF6666;" vertex="1" parent="1">
          <mxGeometry x="480" y="530" width="80" height="30" as="geometry" />
        </mxCell>
        <mxCell id="p23xVv6Rp5-aRSuJVF9R-24" value="$$0 \space dBFS$$" style="text;html=1;align=left;verticalAlign=middle;whiteSpace=wrap;rounded=0;" vertex="1" parent="1">
          <mxGeometry x="730" y="495" width="100" height="30" as="geometry" />
        </mxCell>
        <mxCell id="p23xVv6Rp5-aRSuJVF9R-25" value="$$129.5 \space dBSPL$$" style="text;html=1;align=left;verticalAlign=middle;whiteSpace=wrap;rounded=0;" vertex="1" parent="1">
          <mxGeometry x="730" y="425" width="100" height="30" as="geometry" />
        </mxCell>
      </root>
    </mxGraphModel>
  </diagram>
</mxfile>
